<mxfile host="app.diagrams.net" agent="Mozilla/5.0 (Windows NT 10.0; Win64; x64) AppleWebKit/537.36 (KHTML, like Gecko) Chrome/132.0.0.0 Safari/537.36" version="28.2.3">
  <diagram name="PÃ¡gina-1" id="peqhp4XEd06OBYcxoyGp">
    <mxGraphModel dx="1426" dy="751" grid="1" gridSize="10" guides="1" tooltips="1" connect="1" arrows="1" fold="1" page="1" pageScale="1" pageWidth="827" pageHeight="1169" math="0" shadow="0">
      <root>
        <mxCell id="0" />
        <mxCell id="1" parent="0" />
        <mxCell id="vrAeEqYWEEQ_TQFhVsJ--1" value="" style="rounded=0;whiteSpace=wrap;html=1;glass=0;dashed=1;fillStyle=auto;strokeColor=#6666FF;strokeWidth=1;fillColor=none;gradientColor=default;rotation=-90;" vertex="1" parent="1">
          <mxGeometry x="1255.52" y="1078.63" width="92.33" height="141.53" as="geometry" />
        </mxCell>
        <mxCell id="vrAeEqYWEEQ_TQFhVsJ--5" value="" style="rounded=0;whiteSpace=wrap;html=1;" vertex="1" parent="1">
          <mxGeometry x="670.46" y="813.24" width="761.88" height="646" as="geometry" />
        </mxCell>
        <mxCell id="vrAeEqYWEEQ_TQFhVsJ--6" value="" style="rounded=0;whiteSpace=wrap;html=1;glass=0;dashed=1;fillStyle=auto;strokeColor=#6666FF;strokeWidth=1;fillColor=none;gradientColor=default;rotation=-90;" vertex="1" parent="1">
          <mxGeometry x="873.52" y="940.68" width="423.1" height="231.74" as="geometry" />
        </mxCell>
        <mxCell id="vrAeEqYWEEQ_TQFhVsJ--7" value="" style="rounded=0;whiteSpace=wrap;html=1;glass=0;dashed=1;fillStyle=auto;strokeColor=#6666FF;strokeWidth=1;fillColor=none;gradientColor=default;rotation=-90;" vertex="1" parent="1">
          <mxGeometry x="1096.18" y="968.86" width="419.73" height="173.84" as="geometry" />
        </mxCell>
        <mxCell id="vrAeEqYWEEQ_TQFhVsJ--8" value="" style="rounded=0;whiteSpace=wrap;html=1;glass=0;dashed=1;fillStyle=auto;strokeColor=#6666FF;strokeWidth=1;fillColor=none;gradientColor=default;rotation=-90;" vertex="1" parent="1">
          <mxGeometry x="1017.79" y="893.1600000000001" width="120.5" height="141.53" as="geometry" />
        </mxCell>
        <mxCell id="vrAeEqYWEEQ_TQFhVsJ--9" value="" style="rounded=0;whiteSpace=wrap;html=1;glass=0;dashed=1;fillStyle=auto;strokeColor=#6666FF;strokeWidth=1;fillColor=none;gradientColor=default;rotation=-90;" vertex="1" parent="1">
          <mxGeometry x="1244.54" y="880" width="108.41" height="133.36" as="geometry" />
        </mxCell>
        <mxCell id="vrAeEqYWEEQ_TQFhVsJ--14" value="" style="shape=image;verticalLabelPosition=bottom;labelBackgroundColor=default;verticalAlign=top;aspect=fixed;imageAspect=0;image=data:image/png,iVBORw0KGgoAAAANSUhEUgAAAOEAAADhCAMAAAAJbSJIAAAAllBMVEX////kACviAADkACnkACXkACbjACDjABnjABzjABbjACLjABviAAbjABHiAArjAA7oUF7+9vj51Nj4zNH0r7brYnHzp6/scH398fPxnKXteYbqUmT/+vv1tr3uf4vlFTXoO1HmJEHvhpH86OvoQ1fwkpz3yM3wjJf64eLyoqr3w8nlDTLsaXf63N/97O/mKkPqW2voPVRnI+z/AAATz0lEQVR4nNVd54LyKBQdIQ1NGWMv0Vhib/P+L7chthQgQIh+e/7tfqPmhAu3X35+asfKD/rR+HQLF3PYwIDzRXg7jaP+wV/V//N1ou13l5OFAzxkWkZTg/BOMKYIodY0LBN5wFlMll2//e1HlYDfH8xtF1lN/UmLDAibFnLt+aDvf/uRBeCPJshGBptajqgRf+J39H9gOQx6lmtqIuxeLDXTtXrB8NsUWFjt10Bs7QhrCdb7f/T8aff/bFOrwO4JzQR//X/v7Nn0AFJB70ESgd7m25TSGEZHt6mM3h1N9xj9Kwt5PgGzyt6jAZpgcP42uRidX2DUQO8OA/x2vszvENrqdh8Jmh1+c0Nu6uaXcARf4+ivP8Av4Wivv2HsXHrgM/wSjuB0+TTByK7vfCHBsKOP8jtAVId+YAGixue2Y/sGPs0v4QhuHzIBuu5nBfQNw+t+gF97Yn9jAe+A9qT2ZQzQtxbwDsM81Etw8JUdmAYEgxr57ebml/lhmIvaPOTA1r/NLoFmB/UQHH9dQp+AYFYDv+kafZtYCmg9VU1wdRQ9QyHUm4ZltcwYLcuQCr/RYRwVb8aOyBaEmmV6AM3D23i2jUYxouVg3VAZyGk0dE+pvxHwbkGoWw5w17N9Z1UQo1V3DRQeVRAoPG9GXARxRBeFs2BH/yL/qlDdQLBXRXALOH7OcOzJqFO6/5WaDECRRzVzy+m5xvjAd7oFrsLdaCvRGgOv5GeanjEW2PUrlZLqjmsnCFtgImoLUyTVauEso65DETn2KlOcMQnqDowkAihd0plqzaLluDcJr8eWDVzPSdKqJdnHGG5FQd2y9qBmLyQP7N3Ryn8Z1F7/Op1ezp1Df7Q83RYIANdBLQbXagGcEeMUrRbHvOVfnUETt8v50I3Gk6tux1RJOeUqSiOgE9SrxqLzOtYtDd+3z5v+the6wENWxgaUV/0dqu6CzqKyq+0b6XQVNLg/eOl0Z2vNdkzjsZshkDTgVtSAjOGosCaGYeq8oQopDZfDqLcAbrKc0JEyw6dHihGpgxM9HBQMwmt4G4wCjt/0U+d0uZASn9Hvzn4113V1mQDVmuIutY70DRhonqHrsddkOkA/BSU/e36fNlCXeMInhn6wHYl/bEx2eJmBoEwUILZU3QnzDBi/VYZVh9POBuUYbbKCeQXzBzYdNKO6GumfkBPSKtiRTxkzZFS79EkvBVrglyzVfmrBBU5SVZgTTxmbFaoc0nSL5s4JwfhLOvf/eSEdkMx/CJjbeVwwxN6fdPSCelmknSj70xlQ4iaEgKnkpw7LSIbIyr6ezEkNG7XSKWJISg5Cm30YBA6DYMKxGb195EHmpP64kE4ImrDUMmII6fMrTPPJcZS1u11VQsppGHVt0gqWPcSaIzgBTWOED+PcqZtynCoCcOUX2y5BRtl7EKPcV71zdOd/jZwxoUxIfdvjsd5uBBkF/dKPccTjHiQL70LZSdpHRq/8rw6ER0UcKTtuhkXKyk7SsdEA5V4rIQ6kheVffpFnqO4kveocr2tbNLihzRFsWhGOJ04oE9IpNpNQSdjmQrBHXZ4DalcaNqZBnZCebY716BWPmeaa59s7ZXFjKqylEno/T6PDOLH+xifsJsAVITiUmDR0qLNJt3ejA7DKbglqm/McCGQzxPCohl6M2z20pTGEblM8LqDH1//QlWWoTkh/Hm1VLI0REpaQ8wFGsukWdULafm4xunY7EJYQcKYlopYcwZyQnp354rqe9MazZbTvBgd/t+LuoXmH7qiLSFjCJocVlGBZ6lqQkZORyIS6rmn3EgfkOJ4NYmiL39tgO+ofOuchPUvZf4kRbREJu7Dh8Ybux5LlbjkhvRKjJ1C/N/M5ngs8uFj3ZlH34K9yVvbg/QgUX/a3uISwyUkw/fUiyKn7VbntBzFdq4Uc13bN62086nbO93VdvN9Oc0J6xjPh2/lj7Te5npmckO7FzitcsWOiWJIbYW+7T79jok48EVbB4c6/8DjABOSEVPJbMFUr83IMgjc0JAmIy32QhVKVMrmTdEhyvuUAiq5wRBAQOOclSDkiypATUmnDqAizGPk8El4f24jNYC719nNC2lPXAFc0Bjck78fkT5E3pPpisxmnqaewmsjN6zniWYj408dNmYfLCam8f0JAPmLTJioijzsjNLVkGOaEVFKnUgCy1k+fuMddRhFe7g0xY/oU5PeK1FuiAmXjg2RFxOf8JgxlAlE5Ie1IB0KIyLqJFGsJ8BIka9My5IR0Jmm8U78+7RaRrSXocTPcSYTa8iEokr6qgoyYkoVUQOGfJSQsJ6Q+eFSyqSKaFlOKjLECHjn4EgxzQroLgtF2fAvnCLiOaUmpnyzA2+akBFnIPggRHaA1m4YRO65JdT5K4GB4GPYdGbOTGoKaDv3Dfnmbg6TsqQLRlDonREkxBIy2Tri+3Qbj8Wy2xdX53W43iHGI4WPs7lilbbvyCNDqsB9cTRtZkvXvKaVPUUTqU7NphpwhqOm5O7sCryXRrwGt55dkNhEe/xMLGg4YqCoUJzIUCuZPN9Ha8YTX8pVbfkUCoWsDc/57m0X7YHMeqm9mTDEUjpNON7M5MIVIvlyoZ4AGzs/FPhClSDGUipPuRlcRkq+j8ll6of2qZEPCm6F0MH83WgDeIT8Q3T/jP+2R5k0ZFQreDKsE8/2Bi/gW8iEoL7+CFL5RizfDasH86X7u8XB8GG4vt8zaKqHBwIth9YzT4crRTvdYs9fPCgQtpNB5lyKpyDhtrqWhubtl3X65Bai8pqQCghC8IyVqMk6HY9nwChtrvLe+d2pqIMboH9MbR1nufuSxIx+Jzn+b3fwRbkG0IyP7stWlRYfsGR0IV1m882L8gSchXGZeflKWynrSwGQsY/IqJ6/doaxEsI0xvON8AgXDXmHuHv/aL70OJLFq3kkpmzu0VsBsEeMYQ9di4PZt8+4YAtIgFNVOS0SVVH0R//M7DphEGKft4c7vbA7d/Uigh+Fk6bhxMA266KgTlic6DkU3QicTZtP/rnPYcoHteo6DTCcUYCgSzK2hMp86LgBcMq05yTK8/ksgTCOWIK2j6HkakmORnv9zoGa0RAxxIYb1VOavidUgKEhVMHyKYV2V+USKZv8nokaaRRrmRBjWVplP6kWzIkaZSF0MlZ+kLyyKge2YxIn6bIbAuyZUqtCgrjK/gGGroKOap58b9dlEpEmAYZ3tI51C8F67/YRU1VwTw1p7nEb5NDIMfxZ0hgIuPz/Dmnuc1rlNBxeMIop6GNbc45Tv2Yq9fLr9WA/D+k7SO/o5RwP+MN52HQz5awFlka9dYjBsCQSmuBkK990LI1+Nz2BIKJyigpvhB1qac41bH2ZYv5D+/Oyyi/hhhvUL6U/ehGScpXUw/EjffWYnQoY+rIFhjTZpGqnjNNaHdJumBoYfEdJM5UVs09Dt0hoYfmg4RKrRN7ZL6b6FeoYfGw7xPmti34LuH4qkovgYfkhI02Ia+4d0H1+91aZ2XCUD7yKv+KXS4zTqGRrjaH/o5Htd6sArkG9FjFhbDZa3gQt1gKNfe7N9cK7x3qNXJafZZ3QA1OM9Ne7TaS3TcYETnqLgXMeSvlihQybmnWNYTxQjTVU3YqLevBfxDM4Swcs2jbc+vZG+foYPnrDZcoD9u1RI81VZjwu5qTXoIgwnlXtBoGY54NjrK7od6GG44dxTuqkti7oiwiyaBnJRr69gLR/tN0n+kPr6v8AwYdlEYLGsat49cvdJDpja38rdIauWIYZuua1BpbqJR71lksen9pl/kWEDC6zXEhnem8NDXSS1GNQidJEMqVAOmJ+kvRhJastHD1USu2zTWiW+zjCGboKBVP3EY05HUhNF9fL16/cZ4oUEEwlhvRsyj44RWsvYv8EwRhP8CmvJO8NHbSK5by0JAHBjVu/tM01wEjTT7wwftYg+ZSOKZIlUd2UVYLBHGlIYPjN5lBJGkcBY+Ty6qoDOVURUk5PmWedNs2pgi79wn+5Hq4MmsoyJtniV5tMmr3CNd3swlBxtIgTo8te/JBr/FUuj6XxC1/5XGcZG2IL3wElW7Z2rpPQ92fw2vvQAHkFoBucz4aPv3fdE610TSNd+imFDR3wUsfeUMqwpsRqBmmHBoSRVKFpcgoo9YPQeNEfpIXX4J+fTrIYa0OQytXDjUKqHlNIHLFC7/0GGjRaHV4erZjOeA/kBBfovFE4lKQfHXQhYHZrp6cwXouEmkJopmyKsFNAqNUWw9srOSyCKqcWfmtl8kmGjVRoFnGgN7S/zf4ihDIFQ1EZ6MKQMICg7Tz2Y32NT0mkqEKgRGX0JUeWrdst6brCVlrfISEpf4+/Hp+cGCjDmQVCVYspaISIyizXcpBlDesjPkHumgont/UB+Yu0dHjvUGOoNt/AXhLkbAi4w9+QPdH+1pKHoImC3u8aqgdB4RLAsoa2cIXps7apzy9idU7F6J6ToSTN0ALcLzDmBx3nNoehWHLfDnMkZCynptCWE3ARmDHGtoZeSrXwxryBYXsEZkEd6EOYmutyRkTbPILLMRXekqdMCQIwB1WOLMku4GK7hdy6mHEMAcpcV7isZCQyLcupAyuyETkHSBOa1lY8eKcwRIQyE5QdD58dnpk1ZmsJPmvxXc5XO3CsOSllVubCTkaDWIFWRb/I7UaAhmV4A+CBIeFmF5ggRhtRCkRFq2FR7IL+IAmMkSmZfkq/WuMrLKXUfThF9CYuLKDDshD2/FJGf5ywvp9T4Q3yQ0nYhRs5N1PlzM8zpsVTzL5KWU0DJKsY6j5n3zOlEgfvemGlu/Y/2MVk5pT5Z/IXsO3+yeUDocEe9mXMr6RX6snJKOyFioSi5iOWStYj5zTb2PG961I5wYwgPCvNX7/ABLL1vJMr8In9MmD2TnXGPi9QAYoprMW3oDVRab5i5uZJ/FkhJaoa+N0hjxEtBOZtjr5PDp81oDP6IaUlYnzG+LxKXU0oQY+nwXEyVjdjwl3qXhIShTY+OUQvrqCDffINvAjN4MoxpR4i/fa1syjHjXQnLaZOofPBFVZBvxHoqTMS/hmXBNgjpn43E/CjynRvJ5cU2171r6fY2/n1YequBx/DEJkJVAMS0RULQ4A1/tp8jgSDz2p0syhiyLv6azgVMG+JN4wdMEDrcRTfJ3WtQM0Xu9CbfXJp+9Qxj6sI/1tIlpRq6iWkkcj/3GACgr0ecd8wkKB03zpz3urI4VxGQXNZlIkCm0MjAs3DbR1AWHmSfc9QROtnvIF5TeEtOKp1/rrMkjmWrwD6Yp7/l4bpWgyDpu7l1Jy8/5YoTKz0/syy/ACWdayPAXkYNDAgR6r5738J8F3RWxNJDzHUsqwu43BgcmyAkLOBw8nCG0Gfa4tr9NXAsamCxPJfl94BJ+rjeIt993X1OozME6pkron3Yri3bQ5ahFQeald24G2O4/7OdVvM9xhtqBrLnW5Kjuls/vVn9WO904AIum+72tF5YALheOrrBcw9qTPIQ3a4tAPCM81hp/Y27RD+8PQbPPQFdxW1T3Jiuzn7m7hjeW9ySz+7O592FujYRepl6EEj3nwy7u8qrv03bnKpmXk5HVurgFrFl8hgB6zoYHapomkzmFbYqfNMLw62VLgQQrI/OIQK4RdAGx9uyv5Fa0Gxu2bhV1sudXnaYpltx+vHs7izCpoU825uvx1Eg1sibq9RpgnVfxNzN4TJa2Fmd6VVWhLOUvQnjo7sVM3VbYW+273Z4OnkLtUgabk07yDT7XPp/hYnsnoIJ3TPSVeu4kRd5LnDm4WS8HQUHf3UhPzSp2kq3HHAd9H0Rmn4UgqLJpIIgmeJ7VfXH3Yu2i4zG9fc0mEX9fsz4fF4lVw/QQlS6gVzv2Nt2/VKhHW6iCXJbBBeS6CxKIOILFUF8+aJh4Os18W2TLr5g00Ws1ClMtjdwrpNx1D90drnbGKbDXWw63I7U2y2AshHre+ksGHsW7fOPYjloYTGwUbMxX1z/whiLOTRcbP5RL5yB1dREFkGVhLQA8HRePRlFnB0WSyaodPy471QpK6gDOnESTAUT7DKvtztNFMaxYGyvljDe+YtIdhjF9PejZcAlQOvCakVgEuza5+5V3tuffWgzlgOCopY4vRyMQP6IDdx/YzPqhFWKYsds0+ls/CnOk0qfQavFx1pjGDDnRev9glcQOEbsOI9wFkr+xBl/XVIhIBlqSxynSf6lh71sKBCsz+PAuongAzDIAbsj/r8AR9UPeDW3VW49at+qlU1WArQnZF2QpJAeaxhLaFBt8l1Qci9IfTDIyV/cTIG1I5iHV3ONDflOSS1/Gdq9r+xGCG5UZX5fw98gmCXGalB5WPGmUbkpRJgfajCKEBZ4cZN9OMZSOuPvFKEiIt3MUSMMm6nGo+uTYYBr2D0VSYzLCXxO/2ugx/aTh1jJg1vCcPUTIeYfc+O8/hBH3V6XpgO6qYT8QT5CnMcm/ABH3b7yFNRvX6ZcpDTRtglt5dOFMtDsK2flWQAWo835ELWQ4hGinUlJYrMKDLDm77ae7tdNG05qyJSeB6Ak+ysHaIKToultldEeHZUrj6Z7lPbWa8GmR4jXSkND4FbXJXDyaPfXthKSmgn++h+YcSqDS38NEO81qETggXvr/bcyulwYBj3LNaWuDYea6bZ63X9q81HgjybIFltLaMSf+B19as6wCvj9wdx2kdUsuRw9SV249nzQ/z+xe6Ltd5eThQM8ZFpGU3uH6SG+/BunrDzgLCbLrlCa7R/ExQ/60fh0w8mWO8H5IrydcLrJ/8CZ8h9jPGhKBPyQqgAAAABJRU5ErkJggg==;" vertex="1" parent="1">
          <mxGeometry x="684.4100000000001" y="876.7099999999999" width="40" height="40" as="geometry" />
        </mxCell>
        <mxCell id="vrAeEqYWEEQ_TQFhVsJ--16" value="AS- 400 &lt;br&gt;(172.16.65.1)" style="text;html=1;strokeColor=none;fillColor=none;align=center;verticalAlign=middle;whiteSpace=wrap;rounded=0;glass=0;dashed=1;fillStyle=auto;" vertex="1" parent="1">
          <mxGeometry x="1236.48" y="970.6599999999999" width="131.85" height="30" as="geometry" />
        </mxCell>
        <mxCell id="vrAeEqYWEEQ_TQFhVsJ--17" value="EIBS NODO 1&lt;br&gt;&lt;span data-teams=&quot;true&quot;&gt;172.16.94.100&amp;nbsp;&lt;/span&gt;" style="text;html=1;strokeColor=none;fillColor=none;align=center;verticalAlign=middle;whiteSpace=wrap;rounded=0;glass=0;dashed=1;fillStyle=auto;" vertex="1" parent="1">
          <mxGeometry x="1050.9899999999998" y="978.71" width="60" height="30" as="geometry" />
        </mxCell>
        <mxCell id="vrAeEqYWEEQ_TQFhVsJ--19" value="&lt;b&gt;Capa Intermedia&lt;/b&gt;" style="text;html=1;strokeColor=none;fillColor=none;align=center;verticalAlign=middle;whiteSpace=wrap;rounded=0;glass=0;dashed=1;fillStyle=auto;" vertex="1" parent="1">
          <mxGeometry x="1023.6800000000001" y="863.1600000000001" width="114.61" height="30" as="geometry" />
        </mxCell>
        <mxCell id="vrAeEqYWEEQ_TQFhVsJ--21" value="" style="shape=mxgraph.cisco.computers_and_peripherals.ibm_mini_as400;html=1;pointerEvents=1;dashed=0;fillColor=#036897;strokeColor=#ffffff;strokeWidth=2;verticalLabelPosition=bottom;verticalAlign=top;align=center;outlineConnect=0;rounded=0;glass=0;fillStyle=auto;" vertex="1" parent="1">
          <mxGeometry x="1280.1899999999998" y="908.66" width="43" height="62" as="geometry" />
        </mxCell>
        <mxCell id="vrAeEqYWEEQ_TQFhVsJ--25" value="&lt;b&gt;Red Interna&lt;/b&gt;" style="text;html=1;strokeColor=none;fillColor=none;align=center;verticalAlign=middle;whiteSpace=wrap;rounded=0;glass=0;dashed=1;fillStyle=auto;" vertex="1" parent="1">
          <mxGeometry x="990.6300000000001" y="810.71" width="157.62" height="30" as="geometry" />
        </mxCell>
        <mxCell id="vrAeEqYWEEQ_TQFhVsJ--28" value="" style="verticalLabelPosition=bottom;sketch=0;aspect=fixed;html=1;verticalAlign=top;strokeColor=none;align=center;outlineConnect=0;shape=mxgraph.citrix.xenserver;rounded=0;glass=0;dashed=1;fillStyle=auto;fillColor=none;gradientColor=default;" vertex="1" parent="1">
          <mxGeometry x="1055.06" y="908.6600000000001" width="51.85" height="61" as="geometry" />
        </mxCell>
        <mxCell id="vrAeEqYWEEQ_TQFhVsJ--29" value="" style="endArrow=classic;startArrow=classic;html=1;rounded=0;exitX=0.5;exitY=1;exitDx=0;exitDy=0;" edge="1" parent="1" source="vrAeEqYWEEQ_TQFhVsJ--14">
          <mxGeometry width="50" height="50" relative="1" as="geometry">
            <mxPoint x="678.5999999999999" y="1030.71" as="sourcePoint" />
            <mxPoint x="969.3000000000001" y="1010.71" as="targetPoint" />
            <Array as="points">
              <mxPoint x="704.6" y="1030.71" />
              <mxPoint x="761.79" y="1030.71" />
              <mxPoint x="761.79" y="1010.71" />
            </Array>
          </mxGeometry>
        </mxCell>
        <mxCell id="vrAeEqYWEEQ_TQFhVsJ--38" value="" style="verticalLabelPosition=bottom;html=1;verticalAlign=top;align=center;strokeColor=none;fillColor=#00BEF2;shape=mxgraph.azure.user;" vertex="1" parent="1">
          <mxGeometry x="390" y="860.71" width="47.5" height="50" as="geometry" />
        </mxCell>
        <mxCell id="vrAeEqYWEEQ_TQFhVsJ--49" value="Virtual Server&lt;br&gt;172.16.85.15" style="text;html=1;strokeColor=none;fillColor=none;align=center;verticalAlign=middle;whiteSpace=wrap;rounded=0;glass=0;dashed=1;fillStyle=auto;" vertex="1" parent="1">
          <mxGeometry x="613.09" y="924.1600000000001" width="193.37" height="30" as="geometry" />
        </mxCell>
        <mxCell id="vrAeEqYWEEQ_TQFhVsJ--56" value="" style="verticalLabelPosition=bottom;sketch=0;aspect=fixed;html=1;verticalAlign=top;strokeColor=none;align=center;outlineConnect=0;shape=mxgraph.citrix.xenserver;rounded=0;glass=0;dashed=1;fillStyle=auto;fillColor=none;gradientColor=default;" vertex="1" parent="1">
          <mxGeometry x="1274.72" y="1040.0000000000002" width="51.85" height="61" as="geometry" />
        </mxCell>
        <mxCell id="vrAeEqYWEEQ_TQFhVsJ--61" value="" style="rounded=0;whiteSpace=wrap;html=1;glass=0;dashed=1;fillStyle=auto;strokeColor=#6666FF;strokeWidth=1;fillColor=none;gradientColor=default;rotation=-90;" vertex="1" parent="1">
          <mxGeometry x="1241.68" y="1017.77" width="114.13" height="141.53" as="geometry" />
        </mxCell>
        <mxCell id="vrAeEqYWEEQ_TQFhVsJ--67" value="" style="endArrow=classic;startArrow=classic;html=1;rounded=0;" edge="1" parent="1">
          <mxGeometry width="50" height="50" relative="1" as="geometry">
            <mxPoint x="450" y="893" as="sourcePoint" />
            <mxPoint x="650" y="893" as="targetPoint" />
            <Array as="points" />
          </mxGeometry>
        </mxCell>
        <mxCell id="vrAeEqYWEEQ_TQFhVsJ--68" value="" style="verticalLabelPosition=bottom;sketch=0;aspect=fixed;html=1;verticalAlign=top;strokeColor=none;align=center;outlineConnect=0;shape=mxgraph.citrix.xenserver;rounded=0;glass=0;dashed=1;fillStyle=auto;fillColor=none;gradientColor=default;" vertex="1" parent="1">
          <mxGeometry x="1059.14" y="1086.62" width="51.85" height="61" as="geometry" />
        </mxCell>
        <mxCell id="vrAeEqYWEEQ_TQFhVsJ--69" value="" style="rounded=0;whiteSpace=wrap;html=1;glass=0;dashed=1;fillStyle=auto;strokeColor=#6666FF;strokeWidth=1;fillColor=none;gradientColor=default;rotation=-90;" vertex="1" parent="1">
          <mxGeometry x="1009.96" y="1054.2" width="138.29" height="143.64" as="geometry" />
        </mxCell>
        <mxCell id="vrAeEqYWEEQ_TQFhVsJ--70" value="EIBS NODO 2&lt;br&gt;&lt;span data-teams=&quot;true&quot;&gt;172.16.94.101&lt;/span&gt;" style="text;html=1;strokeColor=none;fillColor=none;align=center;verticalAlign=middle;whiteSpace=wrap;rounded=0;glass=0;dashed=1;fillStyle=auto;" vertex="1" parent="1">
          <mxGeometry x="1050.99" y="1160" width="60" height="30" as="geometry" />
        </mxCell>
        <mxCell id="vrAeEqYWEEQ_TQFhVsJ--71" value="LEGACY&lt;br&gt;&lt;span data-teams=&quot;true&quot;&gt;172.16.65.248&lt;/span&gt;" style="text;html=1;strokeColor=none;fillColor=none;align=center;verticalAlign=middle;whiteSpace=wrap;rounded=0;glass=0;dashed=1;fillStyle=auto;" vertex="1" parent="1">
          <mxGeometry x="1266.57" y="1101" width="60" height="30" as="geometry" />
        </mxCell>
        <mxCell id="vrAeEqYWEEQ_TQFhVsJ--73" value="" style="verticalLabelPosition=bottom;sketch=0;aspect=fixed;html=1;verticalAlign=top;strokeColor=none;align=center;outlineConnect=0;shape=mxgraph.citrix.xenserver;rounded=0;glass=0;dashed=1;fillStyle=auto;fillColor=none;gradientColor=default;" vertex="1" parent="1">
          <mxGeometry x="740" y="1340.0000000000002" width="51.85" height="61" as="geometry" />
        </mxCell>
        <mxCell id="vrAeEqYWEEQ_TQFhVsJ--76" style="edgeStyle=orthogonalEdgeStyle;rounded=0;orthogonalLoop=1;jettySize=auto;html=1;" edge="1" parent="1" source="vrAeEqYWEEQ_TQFhVsJ--74" target="vrAeEqYWEEQ_TQFhVsJ--69">
          <mxGeometry relative="1" as="geometry" />
        </mxCell>
        <mxCell id="vrAeEqYWEEQ_TQFhVsJ--77" style="edgeStyle=orthogonalEdgeStyle;rounded=0;orthogonalLoop=1;jettySize=auto;html=1;entryX=0.5;entryY=1;entryDx=0;entryDy=0;" edge="1" parent="1" source="vrAeEqYWEEQ_TQFhVsJ--74" target="vrAeEqYWEEQ_TQFhVsJ--8">
          <mxGeometry relative="1" as="geometry" />
        </mxCell>
        <mxCell id="vrAeEqYWEEQ_TQFhVsJ--78" style="edgeStyle=orthogonalEdgeStyle;rounded=0;orthogonalLoop=1;jettySize=auto;html=1;" edge="1" parent="1" source="vrAeEqYWEEQ_TQFhVsJ--74" target="vrAeEqYWEEQ_TQFhVsJ--61">
          <mxGeometry relative="1" as="geometry" />
        </mxCell>
        <mxCell id="vrAeEqYWEEQ_TQFhVsJ--79" style="edgeStyle=orthogonalEdgeStyle;rounded=0;orthogonalLoop=1;jettySize=auto;html=1;entryX=1;entryY=0;entryDx=0;entryDy=0;" edge="1" parent="1" source="vrAeEqYWEEQ_TQFhVsJ--74" target="vrAeEqYWEEQ_TQFhVsJ--16">
          <mxGeometry relative="1" as="geometry">
            <Array as="points">
              <mxPoint x="1400" y="1389" />
              <mxPoint x="1400" y="951" />
              <mxPoint x="1368" y="951" />
            </Array>
          </mxGeometry>
        </mxCell>
        <mxCell id="vrAeEqYWEEQ_TQFhVsJ--74" value="" style="rounded=0;whiteSpace=wrap;html=1;glass=0;dashed=1;fillStyle=auto;strokeColor=#6666FF;strokeWidth=1;fillColor=none;gradientColor=default;rotation=-90;" vertex="1" parent="1">
          <mxGeometry x="707.0049999999999" y="1317.7050000000002" width="120.5" height="141.53" as="geometry" />
        </mxCell>
        <mxCell id="vrAeEqYWEEQ_TQFhVsJ--75" value="SRV_MONITOREO" style="text;html=1;strokeColor=none;fillColor=none;align=center;verticalAlign=middle;whiteSpace=wrap;rounded=0;glass=0;dashed=1;fillStyle=auto;" vertex="1" parent="1">
          <mxGeometry x="735.9300000000001" y="1410" width="60" height="30" as="geometry" />
        </mxCell>
        <mxCell id="vrAeEqYWEEQ_TQFhVsJ--80" style="edgeStyle=orthogonalEdgeStyle;rounded=0;orthogonalLoop=1;jettySize=auto;html=1;entryX=0.672;entryY=-0.008;entryDx=0;entryDy=0;entryPerimeter=0;" edge="1" parent="1" source="vrAeEqYWEEQ_TQFhVsJ--8" target="vrAeEqYWEEQ_TQFhVsJ--9">
          <mxGeometry relative="1" as="geometry" />
        </mxCell>
        <mxCell id="vrAeEqYWEEQ_TQFhVsJ--81" style="edgeStyle=orthogonalEdgeStyle;rounded=0;orthogonalLoop=1;jettySize=auto;html=1;entryX=0.383;entryY=0.005;entryDx=0;entryDy=0;entryPerimeter=0;" edge="1" parent="1" source="vrAeEqYWEEQ_TQFhVsJ--8" target="vrAeEqYWEEQ_TQFhVsJ--7">
          <mxGeometry relative="1" as="geometry" />
        </mxCell>
        <mxCell id="vrAeEqYWEEQ_TQFhVsJ--82" style="edgeStyle=orthogonalEdgeStyle;rounded=0;orthogonalLoop=1;jettySize=auto;html=1;entryX=0.333;entryY=-0.012;entryDx=0;entryDy=0;entryPerimeter=0;" edge="1" parent="1" source="vrAeEqYWEEQ_TQFhVsJ--69" target="vrAeEqYWEEQ_TQFhVsJ--7">
          <mxGeometry relative="1" as="geometry" />
        </mxCell>
        <mxCell id="vrAeEqYWEEQ_TQFhVsJ--83" style="edgeStyle=orthogonalEdgeStyle;rounded=0;orthogonalLoop=1;jettySize=auto;html=1;entryX=0.5;entryY=0;entryDx=0;entryDy=0;" edge="1" parent="1" source="vrAeEqYWEEQ_TQFhVsJ--69" target="vrAeEqYWEEQ_TQFhVsJ--9">
          <mxGeometry relative="1" as="geometry" />
        </mxCell>
      </root>
    </mxGraphModel>
  </diagram>
</mxfile>
